<svg width="18" height="18" viewBox="0 0 18 18" fill="none" xmlns="http://www.w3.org/2000/svg">
<path d="M14.6228 5.99014L9.00006 11.4711L3.37731 5.99014C3.27685 5.892 3.14199 5.83706 3.00156 5.83706C2.86112 5.83706 2.72626 5.892 2.62581 5.99014C2.57716 6.0378 2.53852 6.09468 2.51214 6.15746C2.48576 6.22025 2.47217 6.28766 2.47217 6.35576C2.47217 6.42386 2.48576 6.49128 2.51214 6.55406C2.53852 6.61684 2.57716 6.67373 2.62581 6.72139L8.60743 12.5534C8.71248 12.6558 8.85336 12.7131 9.00006 12.7131C9.14675 12.7131 9.28763 12.6558 9.39268 12.5534L15.3743 6.72251C15.4233 6.67482 15.4622 6.61779 15.4888 6.5548C15.5154 6.49181 15.5291 6.42413 15.5291 6.35576C15.5291 6.28739 15.5154 6.21971 15.4888 6.15672C15.4622 6.09373 15.4233 6.03671 15.3743 5.98901C15.2739 5.89088 15.139 5.83594 14.9986 5.83594C14.8581 5.83594 14.7233 5.89088 14.6228 5.98901V5.99014Z" fill="#9CA3AF"/>
</svg>
