<svg width="20" height="20" viewBox="0 0 20 20" fill="none" xmlns="http://www.w3.org/2000/svg">
<g opacity="0.2">
<path d="M9.99935 15.8346C13.221 15.8346 15.8327 13.223 15.8327 10.0013C15.8327 6.77964 13.221 4.16797 9.99935 4.16797C6.77769 4.16797 4.16602 6.77964 4.16602 10.0013C4.16602 13.223 6.77769 15.8346 9.99935 15.8346Z" stroke="#101828" stroke-width="1.66667"/>
<path d="M4.97078 2.61328C4.40545 2.76469 3.88995 3.06227 3.47611 3.47611C3.06227 3.88995 2.76469 4.40545 2.61328 4.97078M15.0291 2.61328C15.5944 2.76469 16.1099 3.06227 16.5238 3.47611C16.9376 3.88995 17.2352 4.40545 17.3866 4.97078M9.99995 6.66661V9.79161C9.99995 9.90661 10.0933 9.99995 10.2083 9.99995H12.4999" stroke="#101828" stroke-width="1.66667" stroke-linecap="round"/>
</g>
</svg>
