<svg width="24" height="24" viewBox="0 0 24 24" fill="none" xmlns="http://www.w3.org/2000/svg">
<path d="M8.25 1.5C7.65326 1.5 7.08097 1.73705 6.65901 2.15901C6.23705 2.58097 6 3.15326 6 3.75H4.875C4.37772 3.75 3.90081 3.94754 3.54917 4.29917C3.19754 4.65081 3 5.12772 3 5.625V8.625C3.00001 9.48764 3.33034 10.3175 3.92313 10.9442C4.51593 11.5709 5.32619 11.9468 6.1875 11.9948C6.48805 13.1593 7.13123 14.2069 8.03381 15.0018C8.93638 15.7967 10.0568 16.3025 11.25 16.4535V18H8.625C7.92881 18 7.26113 18.2766 6.76884 18.7688C6.27656 19.2611 6 19.9288 6 20.625V21.375C6 21.6734 6.11853 21.9595 6.3295 22.1705C6.54048 22.3815 6.82663 22.5 7.125 22.5H16.875C17.1734 22.5 17.4595 22.3815 17.6705 22.1705C17.8815 21.9595 18 21.6734 18 21.375V20.625C18 19.9288 17.7234 19.2611 17.2312 18.7688C16.7389 18.2766 16.0712 18 15.375 18H12.75V16.4535C13.9432 16.3025 15.0636 15.7967 15.9662 15.0018C16.8688 14.2069 17.512 13.1593 17.8125 11.9948C18.6738 11.9468 19.4841 11.5709 20.0769 10.9442C20.6697 10.3175 21 9.48764 21 8.625V5.625C21 5.12772 20.8025 4.65081 20.4508 4.29917C20.0992 3.94754 19.6223 3.75 19.125 3.75H18C18 3.15326 17.7629 2.58097 17.341 2.15901C16.919 1.73705 16.3467 1.5 15.75 1.5H8.25ZM18 5.25H19.125C19.2245 5.25 19.3198 5.28951 19.3902 5.35984C19.4605 5.43016 19.5 5.52554 19.5 5.625V8.625C19.5001 9.05724 19.3508 9.47625 19.0775 9.81109C18.8041 10.1459 18.4235 10.3761 18 10.4625V5.25ZM6 10.4625C5.57649 10.3761 5.19585 10.1459 4.92251 9.81109C4.64917 9.47625 4.49991 9.05724 4.5 8.625V5.625C4.5 5.52554 4.53951 5.43016 4.60984 5.35984C4.68016 5.28951 4.77554 5.25 4.875 5.25H6V10.4625ZM7.5 3.75C7.5 3.55109 7.57902 3.36032 7.71967 3.21967C7.86032 3.07902 8.05109 3 8.25 3H15.75C15.9489 3 16.1397 3.07902 16.2803 3.21967C16.421 3.36032 16.5 3.55109 16.5 3.75V10.5C16.5 11.6935 16.0259 12.8381 15.182 13.682C14.3381 14.5259 13.1935 15 12 15C10.8065 15 9.66193 14.5259 8.81802 13.682C7.97411 12.8381 7.5 11.6935 7.5 10.5V3.75ZM7.5 20.625C7.5 20.3266 7.61853 20.0405 7.8295 19.8295C8.04048 19.6185 8.32663 19.5 8.625 19.5H15.375C15.6734 19.5 15.9595 19.6185 16.1705 19.8295C16.3815 20.0405 16.5 20.3266 16.5 20.625V21H7.5V20.625Z" fill="black"/>
</svg>
